<svg version="1.1" id="Layer_1" xmlns="http://www.w3.org/2000/svg" xmlns:xlink="http://www.w3.org/1999/xlink" x="0px" y="0px"
	 width="100%" viewBox="0 0 496 496" enable-background="new 0 0 496 496" xml:space="preserve">
<path fill="#000000" opacity="1.000000" stroke="none" 
	d="
M222.554703,273.275024 
	C219.851212,254.611389 228.357132,239.139038 234.759491,223.151245 
	C234.882751,222.843414 234.991425,222.493393 235.212906,222.266525 
	C240.226196,217.131729 246.552521,220.676895 252.210190,219.756195 
	C255.029358,219.297424 256.951813,220.820801 257.999390,223.470459 
	C261.854736,233.222000 266.289185,242.790558 269.415161,252.769592 
	C271.810242,260.415375 270.629486,268.678192 269.980225,276.585297 
	C269.603210,281.176392 264.916962,278.907196 262.094696,279.300171 
	C259.727905,279.629700 258.019165,278.852692 257.649323,275.918121 
	C256.655914,268.035492 256.551208,268.048370 248.745193,268.011322 
	C247.412140,268.004974 246.079025,268.005890 244.745972,267.997772 
	C236.591904,267.948090 236.615158,267.951904 235.154694,275.813507 
	C234.142838,281.260193 229.774872,278.956818 226.676727,279.293488 
	C222.403046,279.757874 222.317978,276.769897 222.554703,273.275024 
M252.087433,243.289215 
	C250.904694,240.367371 249.841324,237.388916 248.493011,234.545578 
	C247.722473,232.920639 245.743622,231.479233 244.729187,233.633774 
	C241.613510,240.251205 239.064301,247.135361 236.035202,254.551651 
	C243.391357,254.551651 249.458572,254.551651 256.418976,254.551651 
	C254.944351,250.672241 253.673676,247.329330 252.087433,243.289215 
z"/>
<path fill="#000000" opacity="1.000000" stroke="none" 
	d="
M177.619415,256.343018 
	C174.813263,257.256042 175.386597,259.322418 175.359665,261.058990 
	C175.287491,265.716766 175.237534,270.377686 175.327911,275.034454 
	C175.426331,280.106781 171.814194,279.300232 168.725006,279.361115 
	C165.650269,279.421692 162.612854,279.694977 162.639343,275.037476 
	C162.735931,258.066772 162.715668,241.095016 162.641876,224.124084 
	C162.622177,219.593811 165.587234,219.667007 168.734375,219.688522 
	C171.980911,219.710693 175.351303,219.413345 175.317673,224.228500 
	C175.281631,229.386002 175.392731,234.544876 175.325470,239.701645 
	C175.294678,242.062637 175.817093,243.542084 178.627777,243.417465 
	C183.610718,243.196579 188.601654,243.091431 193.589706,243.075165 
	C196.547546,243.065552 197.766953,241.782608 197.697769,238.823181 
	C197.585022,234.000870 197.800186,229.170074 197.655167,224.349533 
	C197.509064,219.493362 200.745789,219.685226 204.042908,219.684784 
	C207.337997,219.684357 210.417801,219.470871 210.378555,224.364227 
	C210.243805,241.168045 210.232971,257.974579 210.393875,274.777985 
	C210.441605,279.762909 207.306686,279.344543 204.070206,279.376282 
	C200.761627,279.408722 197.539078,279.609985 197.677719,274.756775 
	C197.810684,270.102142 197.520508,265.432709 197.729630,260.783875 
	C197.889664,257.226501 196.388931,256.078461 193.020630,256.197754 
	C188.035217,256.374268 183.039764,256.267273 177.619415,256.343018 
z"/>
<path fill="#000000" opacity="1.000000" stroke="none" 
	d="
M138.750214,244.844681 
	C135.063278,246.675629 131.100815,247.022629 127.537872,250.125549 
	C135.756134,253.292633 143.440994,256.243927 151.118027,259.215515 
	C159.126083,262.315186 160.326233,265.036926 157.499603,273.666534 
	C155.935135,274.336212 154.591904,273.419281 153.251251,272.906067 
	C140.839249,268.154633 128.497101,263.215332 116.023094,258.634277 
	C111.832321,257.095245 110.555672,254.537430 110.635849,250.331039 
	C110.715881,246.132095 110.797745,242.658936 115.755089,240.868820 
	C128.252502,236.355957 140.575348,231.361679 152.999329,226.642395 
	C157.685059,224.862488 158.470108,225.672180 158.754990,230.443771 
	C159.059418,235.543060 157.240173,238.437088 152.168182,239.812729 
	C147.701187,241.024277 143.449509,243.029602 138.750214,244.844681 
z"/>
<path fill="#000000" opacity="1.000000" stroke="none" 
	d="
M347.008911,262.167969 
	C338.121002,265.579041 329.647675,269.001190 321.053894,272.087952 
	C318.903351,272.860382 316.261780,275.837067 314.062134,272.434479 
	C311.951172,269.169098 313.995087,262.053619 317.260529,260.743134 
	C324.350525,257.897766 331.525696,255.264969 338.661194,252.532532 
	C340.642609,251.773758 342.606934,250.970352 345.213684,249.935501 
	C339.856506,246.733109 334.414673,245.359909 329.306702,243.241638 
	C325.318054,241.587555 321.281128,240.045807 317.236084,238.533356 
	C314.960663,237.682587 313.858124,236.239044 313.650360,233.731689 
	C312.943085,225.196579 313.660339,224.546326 321.680756,227.576096 
	C333.333588,231.978027 344.859619,236.733795 356.612518,240.844604 
	C362.168060,242.787766 361.145538,246.852280 361.396637,250.910065 
	C361.647095,254.958069 360.404724,257.553192 356.220123,258.681946 
	C353.190277,259.499207 350.320251,260.909271 347.008911,262.167969 
z"/>
<path fill="#000000" opacity="1.000000" stroke="none" 
	d="
M296.903687,259.812347 
	C293.319458,268.287292 289.953918,276.441528 286.458252,284.539581 
	C284.716187,288.575287 276.861664,290.824768 273.201752,288.402283 
	C270.435028,286.571014 272.512085,284.435516 273.235321,282.684296 
	C280.223877,265.762115 287.341919,248.893448 294.418823,232.007736 
	C296.220367,227.709183 297.995056,223.399323 299.803345,219.103607 
	C303.712341,209.817307 305.600952,208.912689 316.985321,211.749802 
	C310.303497,227.758804 303.686066,243.613632 296.903687,259.812347 
z"/>
</svg>